<svg xmlns="http://www.w3.org/2000/svg" xmlns:xlink="http://www.w3.org/1999/xlink" width="66" height="66" viewBox="0 0 66 66">
  <defs>
    <filter id="Ellipse_338" x="0" y="0" width="66" height="66" filterUnits="userSpaceOnUse">
      <feOffset dy="3" input="SourceAlpha"/>
      <feGaussianBlur stdDeviation="3" result="blur"/>
      <feFlood flood-opacity="0.161"/>
      <feComposite operator="in" in2="blur"/>
      <feComposite in="SourceGraphic"/>
    </filter>
  </defs>
  <g id="Group_100790" data-name="Group 100790" transform="translate(-905 -4067)">
    <g transform="matrix(1, 0, 0, 1, 905, 4067)" filter="url(#Ellipse_338)">
      <g id="Ellipse_338-2" data-name="Ellipse 338" transform="translate(9 6)" fill="#2474bb" stroke="rgba(14,58,98,0.36)" stroke-width="2">
        <circle cx="24" cy="24" r="24" stroke="none"/>
        <circle cx="24" cy="24" r="23" fill="none"/>
      </g>
    </g>
    <g id="noun-smell-3212611" transform="translate(714.502 4081.262)">
      <path id="Path_71962" data-name="Path 71962" d="M230.784,17.086a18.409,18.409,0,0,0-1.244-3.787l-.089-.24c-.489-1.235-1.031-2.667-1.44-3.956h0a28.282,28.282,0,0,1-1-5.156V3.53a.477.477,0,0,0,0-.133A3.884,3.884,0,0,0,223.13,0a3.831,3.831,0,0,0-3.8,3.244v.613a27.743,27.743,0,0,1-1,5.209c-.409,1.307-.951,2.72-1.44,3.956l-.089.231a18.736,18.736,0,0,0-1.316,3.778,3.228,3.228,0,0,0-.044.56,3.876,3.876,0,0,0,3.875,3.876,3.643,3.643,0,0,0,1.147-.133.363.363,0,0,1,.142,0,.508.508,0,0,1,.267.089,3.938,3.938,0,0,0,4.445,0,.427.427,0,0,1,.48-.089,3.646,3.646,0,0,0,1.173.178,3.876,3.876,0,0,0,3.876-3.876,3.178,3.178,0,0,0-.062-.551Zm-2.044,2.9a2.836,2.836,0,0,1-2.134.578,2.66,2.66,0,0,1-.382-.08l-.213-.035a2.93,2.93,0,0,1-.631-.3,2.961,2.961,0,0,1-2.249,1.022,3,3,0,0,1-1.565-.436,3.087,3.087,0,0,1-.7-.6,3.034,3.034,0,0,1-1.556.444,2.987,2.987,0,0,1-2.987-2.987v-.373h0a11.823,11.823,0,0,1,.889-2.916l.107-.293c.062-.142.116-.284.169-.418.542-1.4,1.111-2.853,1.547-4.267h0A28.1,28.1,0,0,0,219.815,6c.16-1,.24-1.778.267-2.1V3.495a2.987,2.987,0,0,1,5.92,0v.453c0,.222.107,1.093.267,2.1h0a28.938,28.938,0,0,0,.782,3.325c.436,1.4,1,2.862,1.538,4.24.062.151.116.293.178.435l.107.284a11.957,11.957,0,0,1,.889,2.925v.125h0a2.319,2.319,0,0,1,0,.249,3,3,0,0,1-1.022,2.356Z" transform="translate(0 0)" fill="#fff" stroke="#fff" stroke-width="0.4"/>
      <path id="Path_71963" data-name="Path 71963" d="M329.084,420.42a.444.444,0,0,0-.453-.427.453.453,0,0,0-.453.444,1.867,1.867,0,0,1-.764,1.467,2.667,2.667,0,0,0,0,4.2,1.867,1.867,0,0,1,.764,1.467.454.454,0,0,0,.453.427.445.445,0,0,0,.436-.444,2.738,2.738,0,0,0-1.031-2.1,1.778,1.778,0,0,1,0-2.933A2.756,2.756,0,0,0,329.084,420.42Z" transform="translate(-104.611 -395.992)" fill="#fff" stroke="#fff" stroke-width="0.4"/>
      <path id="Path_71964" data-name="Path 71964" d="M392.228,420.127a.444.444,0,0,0-.889,0,1.866,1.866,0,0,1-.773,1.467,2.667,2.667,0,0,0,0,4.2,1.866,1.866,0,0,1,.773,1.467.444.444,0,1,0,.889,0,2.666,2.666,0,0,0-1.031-2.1,1.778,1.778,0,0,1,0-2.933A2.667,2.667,0,0,0,392.228,420.127Z" transform="translate(-164.155 -395.699)" fill="#fff" stroke="#fff" stroke-width="0.4"/>
      <path id="Path_71965" data-name="Path 71965" d="M266.2,420.127a.444.444,0,0,0-.889,0,1.866,1.866,0,0,1-.765,1.467,2.738,2.738,0,0,0-1.031,2.1,2.666,2.666,0,0,0,1.031,2.1,1.885,1.885,0,0,1,.765,1.467.444.444,0,1,0,.889,0,2.764,2.764,0,0,0-1.031-2.1,1.778,1.778,0,0,1,0-2.933A2.783,2.783,0,0,0,266.2,420.127Z" transform="translate(-45.325 -395.699)" fill="#fff" stroke="#fff" stroke-width="0.4"/>
    </g>
  </g>
</svg>
