<?xml version="1.0" standalone="no"?>
<!DOCTYPE svg PUBLIC "-//W3C//DTD SVG 20010904//EN"
 "http://www.w3.org/TR/2001/REC-SVG-20010904/DTD/svg10.dtd">
<svg version="1.0" xmlns="http://www.w3.org/2000/svg"
 width="18" height="18" viewBox="0 0 256.000000 256.000000"
 preserveAspectRatio="xMidYMid meet">

<g transform="translate(0.000000,256.000000) scale(0.100000,-0.100000)"
fill="#fff" stroke="none">
<path d="M720 1615 c451 -451 449 -450 560 -450 111 0 109 -1 560 450 l415
415 -975 0 -975 0 415 -415z"/>
<path d="M180 1280 l0 -625 312 313 313 312 -313 312 -312 313 0 -625z"/>
<path d="M2065 1590 l-310 -310 313 -313 312 -312 0 623 c0 342 -1 622 -3 622
-1 0 -142 -140 -312 -310z"/>
<path d="M615 840 l-310 -310 975 0 975 0 -312 312 -313 313 -42 -41 c-97 -92
-179 -126 -308 -126 -127 0 -232 44 -314 131 -17 17 -32 31 -35 31 -4 0 -146
-139 -316 -310z"/>
</g>
</svg>
