<svg xmlns="http://www.w3.org/2000/svg" width="25.765" height="22.544" viewBox="0 0 25.765 22.544">
  <path id="Icon_awesome-quote-left" data-name="Icon awesome-quote-left" d="M23.35,13.522H19.324V10.3a3.224,3.224,0,0,1,3.221-3.221h.4a1.2,1.2,0,0,0,1.208-1.208V3.458A1.2,1.2,0,0,0,22.947,2.25h-.4A8.049,8.049,0,0,0,14.493,10.3V22.379a2.416,2.416,0,0,0,2.415,2.415H23.35a2.416,2.416,0,0,0,2.415-2.415V15.938A2.416,2.416,0,0,0,23.35,13.522Zm-14.493,0H4.831V10.3A3.224,3.224,0,0,1,8.052,7.081h.4A1.2,1.2,0,0,0,9.662,5.873V3.458A1.2,1.2,0,0,0,8.454,2.25h-.4A8.049,8.049,0,0,0,0,10.3V22.379a2.416,2.416,0,0,0,2.415,2.415H8.857a2.416,2.416,0,0,0,2.415-2.415V15.938A2.416,2.416,0,0,0,8.857,13.522Z" transform="translate(0 -2.25)" fill="#2474bb"/>
</svg>
