<svg xmlns="http://www.w3.org/2000/svg" width="27.143" height="26" viewBox="0 0 27.143 26">
  <g id="Icon_feather-shopping-cart" data-name="Icon feather-shopping-cart" transform="translate(-0.5 -0.5)">
    <path id="Path_3" data-name="Path 3" d="M14.286,31.143A1.143,1.143,0,1,1,13.143,30,1.143,1.143,0,0,1,14.286,31.143Z" transform="translate(-2.5 -6.786)" fill="none" stroke="#657283" stroke-linecap="round" stroke-linejoin="round" stroke-width="2"/>
    <path id="Path_4" data-name="Path 4" d="M30.786,31.143A1.143,1.143,0,1,1,29.643,30,1.143,1.143,0,0,1,30.786,31.143Z" transform="translate(-6.429 -6.786)" fill="none" stroke="#657283" stroke-linecap="round" stroke-linejoin="round" stroke-width="2"/>
    <path id="Path_5" data-name="Path 5" d="M1.5,1.5H6.071L9.134,16.8a2.286,2.286,0,0,0,2.286,1.84H22.529a2.286,2.286,0,0,0,2.286-1.84l1.829-9.589H7.214" transform="translate(0 0)" fill="none" stroke="#657283" stroke-linecap="round" stroke-linejoin="round" stroke-width="2"/>
  </g>
</svg>
