<svg xmlns="http://www.w3.org/2000/svg" xmlns:xlink="http://www.w3.org/1999/xlink" width="60" height="60" viewBox="0 0 60 60">
  <defs>
    <clipPath id="clip-path">
      <rect id="Rectangle_145277" data-name="Rectangle 145277" width="36.562" height="36" fill="#2474bb" stroke="rgba(0,0,0,0)" stroke-width="1"/>
    </clipPath>
  </defs>
  <g id="Group_100857" data-name="Group 100857" transform="translate(-967 -1185)">
    <circle id="Ellipse_358" data-name="Ellipse 358" cx="30" cy="30" r="30" transform="translate(967 1185)" fill="#f0f5f2"/>
    <g id="Group_100798" data-name="Group 100798" transform="translate(979 1197)">
      <g id="Group_100797" data-name="Group 100797" transform="translate(0 0)" clip-path="url(#clip-path)">
        <path id="Path_71993" data-name="Path 71993" d="M0,9.01c.166-.763.284-1.539.509-2.283A9.1,9.1,0,0,1,2.555,3.213c.3-.325.62-.378.865-.152s.213.545-.079.877a8.741,8.741,0,1,0,7.864-2.752A8.5,8.5,0,0,0,5.277,2.338a2.665,2.665,0,0,1-.341.193.485.485,0,0,1-.645-.214.476.476,0,0,1,.083-.649,2.519,2.519,0,0,1,.441-.3A9.824,9.824,0,0,1,19.2,6.95c.034.112.069.225.119.388.094-.085.171-.148.24-.217A9.457,9.457,0,0,1,29.685,4.488a9.432,9.432,0,0,1,6.76,7.982,9.25,9.25,0,0,1-.647,5.1c-.175.425-.434.574-.756.44s-.4-.423-.235-.841a8.739,8.739,0,0,0-15.062-8.6.687.687,0,0,0-.148.412,9.752,9.752,0,0,1-2.69,7.6c-.04.043-.076.089-.143.168.1.039.18.074.262.1A9.791,9.791,0,0,1,22.339,21a.5.5,0,0,0,.486.264c2.736-.007,5.472,0,8.208-.012a.858.858,0,0,0,.521-.164c.673-.581,1.323-1.186,1.979-1.786.061-.056.1-.132.157-.193a.539.539,0,0,1,.762-.1.519.519,0,0,1,.068.762c-.341.411-.711.8-1.072,1.193a3.6,3.6,0,0,1-.3.256c.174.02.261.037.348.037.511.006,1.024-.011,1.534.012a1.555,1.555,0,0,1,1.514,1.547q.018,4.532,0,9.064a1.565,1.565,0,0,1-1.564,1.538c-.7.013-1.4.007-2.105,0a.538.538,0,0,1-.6-.516.546.546,0,0,1,.611-.55c.654-.008,1.308,0,1.963,0,.439,0,.633-.192.633-.631q0-4.37,0-8.742c0-.468-.191-.645-.692-.645q-6.156,0-12.311,0c-.507,0-.689.183-.689.689q0,4.318,0,8.635c0,.522.183.7.716.7h7.779c.1,0,.191,0,.286,0,.388.012.625.217.627.536s-.239.531-.624.532c-.976,0-1.951,0-2.926,0-1.666,0-3.331-.01-5,.006a1.893,1.893,0,0,1-1.47-.484A9.838,9.838,0,1,1,7.032,19.267c-.529-.224-1.075-.413-1.582-.678a9.677,9.677,0,0,1-5.387-7.7A1.791,1.791,0,0,0,0,10.652V9.01M21.4,21.551a.555.555,0,0,0-.032-.085,8.691,8.691,0,0,0-5.407-3.791.594.594,0,0,0-.416.109,9.762,9.762,0,0,1-6.88,1.774.6.6,0,0,0-.536.178,8.43,8.43,0,0,0-2.6,8.436,8.272,8.272,0,0,0,6.309,6.462,8.453,8.453,0,0,0,8.621-2.519.868.868,0,0,0,.259-.664c-.01-2.747,0-5.494-.012-8.241a1.849,1.849,0,0,1,.695-1.658" transform="translate(0 0)" fill="#2474bb" stroke="rgba(0,0,0,0)" stroke-width="1"/>
        <path id="Path_71994" data-name="Path 71994" d="M8.485,11.687v-.419q0-2.338,0-4.675a1.08,1.08,0,0,1,1.5-1.149q2.083.552,4.165,1.11a1.159,1.159,0,0,1,1.027,1.354c0,1.951.018,3.9-.012,5.852a4.408,4.408,0,0,1-.266,1.493,2.312,2.312,0,0,1-2.661,1.414,1.614,1.614,0,0,1-1.29-1.2,1.632,1.632,0,0,1,.507-1.689,2.662,2.662,0,0,1,2.081-.65c.176.012.35.037.57.062V12.128c0-.69.009-1.38-.009-2.069a.391.391,0,0,0-.189-.306c-1.428-.4-2.861-.779-4.355-1.181v.405c0,1.142.036,2.286-.016,3.425a4.221,4.221,0,0,1-.357,1.541,2.276,2.276,0,0,1-2.464,1.236,1.626,1.626,0,0,1-1.407-1.292,1.659,1.659,0,0,1,.72-1.776,2.753,2.753,0,0,1,1.963-.481c.151.015.3.034.491.057M9.569,7.468l4.539,1.214a6.3,6.3,0,0,1,0-.666c.032-.276-.071-.4-.341-.465-.852-.209-1.7-.444-2.546-.669-.545-.145-1.089-.293-1.657-.445Zm4.47,6.844a2,2,0,0,0-1.645.1.7.7,0,0,0-.4.829.778.778,0,0,0,.8.413,1.356,1.356,0,0,0,1.242-1.342M7.653,12.677c-.011-.026-.022-.053-.033-.079a5.394,5.394,0,0,0-1.015.452.728.728,0,0,0-.224.614c.031.17.265.356.451.431a1.142,1.142,0,0,0,1.284-.462,3.835,3.835,0,0,0,.311-.778l-.738-.179a.18.18,0,0,0-.036,0" transform="translate(-1.065 -1.088)" fill="#2474bb" stroke="rgba(0,0,0,0)" stroke-width="1"/>
        <path id="Path_71995" data-name="Path 71995" d="M30.669,18.5c0,.159,0,.289,0,.418a1.605,1.605,0,0,1-1.59,1.559q-.375.011-.749,0a1.584,1.584,0,0,1-1.581-1.6q-.014-2,0-4A1.558,1.558,0,0,1,28.112,13.3a4.474,4.474,0,0,1,1.173,0,1.581,1.581,0,0,1,1.384,1.568c0,.117,0,.235,0,.375h3.213c0-.126,0-.242,0-.357a1.581,1.581,0,0,1,1.4-1.591,4.719,4.719,0,0,1,1.1,0A1.564,1.564,0,0,1,37.8,14.826q.03,2.051,0,4.1a1.58,1.58,0,0,1-1.564,1.544c-.214.006-.428,0-.642,0a1.6,1.6,0,0,1-1.712-1.686c0-.093-.01-.184-.016-.294ZM27.816,16.9v1.425c0,1.044.044,1.087,1.078,1.078.527,0,.705-.18.706-.705,0-1.08,0-2.161,0-3.241s-.077-1.151-1.154-1.118c-.436.014-.625.2-.629.638,0,.641,0,1.282,0,1.924m7.138-.022v1.46c0,1.024.045,1.071,1.055,1.064.552,0,.728-.174.728-.719,0-1.081,0-2.161,0-3.242,0-1.06-.069-1.126-1.133-1.1-.46.01-.648.194-.651.652,0,.629,0,1.259,0,1.888m-4.267.5h3.176V16.358H30.686Z" transform="translate(-5.407 -2.681)" fill="#2474bb" stroke="rgba(0,0,0,0)" stroke-width="1"/>
        <path id="Path_71996" data-name="Path 71996" d="M32.752,33.467c0-.772,0-1.545,0-2.317a1.077,1.077,0,0,1,1.726-.973q1.943,1.155,3.876,2.33a1.07,1.07,0,0,1,.014,1.929q-1.959,1.2-3.937,2.366a1.069,1.069,0,0,1-1.678-.982c-.007-.784,0-1.568,0-2.353m1.079,2.456,4.059-2.448-4.059-2.441Z" transform="translate(-6.622 -6.06)" fill="#2474bb" stroke="rgba(0,0,0,0)" stroke-width="1"/>
        <path id="Path_71997" data-name="Path 71997" d="M14.329,27.1a3.2,3.2,0,0,1,1.733.55.406.406,0,0,0,.359,0,3.145,3.145,0,0,1,3.622,0A3.333,3.333,0,0,1,21.4,31.2a5.735,5.735,0,0,1-1.483,2.68,17.284,17.284,0,0,1-3.034,2.53.991.991,0,0,1-1.174.057,14.418,14.418,0,0,1-3.693-3.271,4.618,4.618,0,0,1-1.007-2.909A3.27,3.27,0,0,1,14.329,27.1m1.934,8.458c.535-.409,1.067-.79,1.57-1.205a14.321,14.321,0,0,0,1.177-1.088,4.909,4.909,0,0,0,1.29-2.1,2.334,2.334,0,0,0-.943-2.687,2.187,2.187,0,0,0-2.706.394c-.274.293-.542.258-.867-.045a2.157,2.157,0,0,0-2.558-.4,2.294,2.294,0,0,0-1.108,2.428,4.2,4.2,0,0,0,.894,1.877,14.747,14.747,0,0,0,3.251,2.835" transform="translate(-2.226 -5.477)" fill="#2474bb" stroke="rgba(0,0,0,0)" stroke-width="1"/>
      </g>
    </g>
  </g>
</svg>
