<svg xmlns="http://www.w3.org/2000/svg" xmlns:xlink="http://www.w3.org/1999/xlink" width="66" height="66" viewBox="0 0 66 66">
  <defs>
    <filter id="Ellipse_339" x="0" y="0" width="66" height="66" filterUnits="userSpaceOnUse">
      <feOffset dy="3" input="SourceAlpha"/>
      <feGaussianBlur stdDeviation="3" result="blur"/>
      <feFlood flood-opacity="0.161"/>
      <feComposite operator="in" in2="blur"/>
      <feComposite in="SourceGraphic"/>
    </filter>
    <clipPath id="clip-path">
      <rect id="Rectangle_145268" data-name="Rectangle 145268" width="28.827" height="18.552" fill="#fff"/>
    </clipPath>
  </defs>
  <g id="Group_100789" data-name="Group 100789" transform="translate(-827 -3932)">
    <g transform="matrix(1, 0, 0, 1, 827, 3932)" filter="url(#Ellipse_339)">
      <g id="Ellipse_339-2" data-name="Ellipse 339" transform="translate(9 6)" fill="#2474bb" stroke="rgba(14,58,98,0.36)" stroke-width="2">
        <circle cx="24" cy="24" r="24" stroke="none"/>
        <circle cx="24" cy="24" r="23" fill="none"/>
      </g>
    </g>
    <g id="Group_100771" data-name="Group 100771" transform="translate(846 3953)">
      <g id="Group_100770" data-name="Group 100770" transform="translate(0 0)" clip-path="url(#clip-path)">
        <path id="Path_71961" data-name="Path 71961" d="M28.827,1.628a5.207,5.207,0,0,1-.453.446,7.817,7.817,0,0,0-2.931,4.779,17.282,17.282,0,0,1-.653,2.668,5.349,5.349,0,0,1-4.288,3.52,6.438,6.438,0,0,1-5.461-1.468c-.064-.053-.13-.1-.268-.211-.3,1.011-.566,1.982-.874,2.941a1.376,1.376,0,0,0,.221,1.276,10.349,10.349,0,0,1,1.219,2.686l-1.125.287a12.866,12.866,0,0,0-2.6-4.454,11.5,11.5,0,0,1-1.211.968,4.786,4.786,0,0,1-5.239.117,4.486,4.486,0,0,1-1.913-2.619,22.092,22.092,0,0,0-.847-2.344A4.961,4.961,0,0,0,.5,8.156C.449,8.121.395,8.084.339,8.05A.6.6,0,0,1,0,7.449a.582.582,0,0,1,.432-.505c.792-.256,1.576-.55,2.384-.743A12.33,12.33,0,0,1,7.6,5.968a5.868,5.868,0,0,1,3.944,2.047,4.623,4.623,0,0,1,.878,4.363,1.019,1.019,0,0,0,.335,1.249.846.846,0,0,0,.091.054c.084-.3.148-.59.247-.869q.388-1.1.8-2.185a.464.464,0,0,0-.032-.442,6.168,6.168,0,0,1,.411-7.023A6.487,6.487,0,0,1,17.09,1.027,14.582,14.582,0,0,1,23.76.032a18.848,18.848,0,0,1,4.474.8.867.867,0,0,1,.593.462ZM15.348,10.267a5.348,5.348,0,0,0,4.917,1.63A4.218,4.218,0,0,0,23.7,9.115,11.343,11.343,0,0,0,24.2,7.1a9.47,9.47,0,0,1,1.9-4.442c.269-.329.564-.638.9-1.013-.856-.133-1.656-.287-2.464-.377a15.185,15.185,0,0,0-5.692.363,7.264,7.264,0,0,0-2.98,1.515A5.029,5.029,0,0,0,14.155,7.1a4.471,4.471,0,0,0,.47,2.033A12.169,12.169,0,0,1,22.78,2.8l.242,1.136a11.185,11.185,0,0,0-7.674,6.331M10.762,13.2a17.67,17.67,0,0,0-6.07-3.757L5.1,8.362a18.853,18.853,0,0,1,6.177,3.72.385.385,0,0,0,.046-.056.363.363,0,0,0,.029-.079,3.8,3.8,0,0,0-.419-2.767,4.194,4.194,0,0,0-2.8-1.914,10.7,10.7,0,0,0-4.522-.034c-.59.1-1.17.268-1.827.421.151.135.235.209.317.284a5.977,5.977,0,0,1,1.55,2.182c.258.651.437,1.333.684,1.989a5.476,5.476,0,0,0,.589,1.264,3.219,3.219,0,0,0,3.4,1.286A3.765,3.765,0,0,0,10.762,13.2" transform="translate(0 0)" fill="#fff"/>
      </g>
    </g>
  </g>
</svg>
