<svg xmlns="http://www.w3.org/2000/svg" xmlns:xlink="http://www.w3.org/1999/xlink" width="66" height="66" viewBox="0 0 66 66">
  <defs>
    <filter id="Ellipse_341" x="0" y="0" width="66" height="66" filterUnits="userSpaceOnUse">
      <feOffset dy="3" input="SourceAlpha"/>
      <feGaussianBlur stdDeviation="3" result="blur"/>
      <feFlood flood-opacity="0.161"/>
      <feComposite operator="in" in2="blur"/>
      <feComposite in="SourceGraphic"/>
    </filter>
  </defs>
  <g id="Group_100788" data-name="Group 100788" transform="translate(-411 -4239)">
    <g transform="matrix(1, 0, 0, 1, 411, 4239)" filter="url(#Ellipse_341)">
      <g id="Ellipse_341-2" data-name="Ellipse 341" transform="translate(9 6)" fill="#2474bb" stroke="rgba(14,58,98,0.36)" stroke-width="2">
        <circle cx="24" cy="24" r="24" stroke="none"/>
        <circle cx="24" cy="24" r="23" fill="none"/>
      </g>
    </g>
    <path id="noun-emulsion-3659678" d="M92.813,6.864a.359.359,0,0,0-.3.146,43.981,43.981,0,0,0-2.857,4.261,10.78,10.78,0,0,0-1.71,4.991,4.857,4.857,0,1,0,9.712,0,10.794,10.794,0,0,0-1.69-4.955,43.759,43.759,0,0,0-2.877-4.3.359.359,0,0,0-.276-.146Zm-.012.974a39.637,39.637,0,0,1,2.541,3.821,10.391,10.391,0,0,1,1.6,4.6,4.14,4.14,0,1,1-8.277,0,10.389,10.389,0,0,1,1.616-4.632A39.738,39.738,0,0,1,92.8,7.838ZM95.97,16.4h0a.359.359,0,0,0-.344.3,2.989,2.989,0,0,1-1.656,2.124h0a2.8,2.8,0,0,1-.588.194.359.359,0,1,0,.148.7,3.522,3.522,0,0,0,.739-.244,3.676,3.676,0,0,0,2.065-2.643h0a.359.359,0,0,0-.361-.431ZM85.415,18.179h0a.359.359,0,0,0-.354.364v.216a.359.359,0,1,0,.718,0v-.216a.359.359,0,0,0-.364-.364Zm14.527.765A1.255,1.255,0,1,0,101.2,20.2,1.261,1.261,0,0,0,99.942,18.943Zm-15.387.1h0a.359.359,0,1,0,0,.718h.216a.359.359,0,1,0,0-.718Zm1.514,0h0a.359.359,0,1,0,0,.718h.216a.359.359,0,1,0,0-.718Zm13.872.612a.538.538,0,1,1-.538.538A.533.533,0,0,1,99.942,19.661Zm-14.527.032h0a.359.359,0,0,0-.354.364v.216a.359.359,0,1,0,.718,0v-.216a.359.359,0,0,0-.364-.364Zm-5.161,2.459a23.629,23.629,0,0,0-4.268.695h0a.359.359,0,0,0,.173.7,25.765,25.765,0,0,1,4.1-.674c1.3,0,2.65.684,4.183.684s2.881-.684,4.182-.684,2.65.684,4.183.684,2.881-.684,4.182-.684,2.65.684,4.182.684,2.881-.684,4.182-.684a25.775,25.775,0,0,1,4.1.674h0a.359.359,0,1,0,.173-.7,23.637,23.637,0,0,0-4.269-.695c-1.532,0-2.881.684-4.182.684s-2.65-.684-4.182-.684-2.881.684-4.182.684-2.65-.684-4.183-.684-2.881.684-4.182.684-2.65-.684-4.183-.684Zm-4.234,2.974h0a.359.359,0,0,0,0,.718h3.732a.359.359,0,0,0,0-.718H76.019Zm4.976,0h0a.359.359,0,0,0,0,.718H82.24a.359.359,0,0,0,0-.718Zm2.488,0h0a.359.359,0,0,0,0,.718h3.733a.359.359,0,0,0,0-.718H83.483Zm4.976,0h0a.359.359,0,0,0,0,.718H89.7a.359.359,0,0,0,0-.718Zm2.488,0h0a.359.359,0,0,0,0,.718H94.68a.359.359,0,0,0,0-.718H90.948Zm4.976,0h0a.359.359,0,0,0,0,.718h1.244a.359.359,0,0,0,0-.718Zm2.488,0h0a.359.359,0,0,0,0,.718h3.733a.359.359,0,0,0,0-.718H98.412Zm4.976,0h0a.359.359,0,0,0,0,.718h1.244a.359.359,0,0,0,0-.718Zm2.489,0h0a.359.359,0,0,0,0,.718h3.732a.359.359,0,0,0,0-.718h-3.733Zm-.294,2.229a2.829,2.829,0,0,0-1.24.416,2.313,2.313,0,0,1-.991.346,2,2,0,0,1-.864-.338,2.492,2.492,0,0,0-1.248-.423,2.407,2.407,0,0,0-1.234.429,1.314,1.314,0,0,1-1.746,0,1.988,1.988,0,0,0-2.467,0,1.314,1.314,0,0,1-1.746,0,1.988,1.988,0,0,0-2.467,0,1.314,1.314,0,0,1-1.746,0,1.988,1.988,0,0,0-2.467,0,1.314,1.314,0,0,1-1.746,0,2.4,2.4,0,0,0-1.234-.429,2.488,2.488,0,0,0-1.248.423,1.981,1.981,0,0,1-.863.337,2.256,2.256,0,0,1-.972-.344,2.653,2.653,0,0,0-1.319-.417,3.59,3.59,0,0,0-1.367.422c-.358.17-.568.3-.638.339H75.961a.359.359,0,1,0,0,.717h2.107a.359.359,0,0,0,.184-.051s.3-.177.674-.357A3.635,3.635,0,0,1,80,28.072a2.162,2.162,0,0,1,.967.335,2.719,2.719,0,0,0,1.314.426,2.489,2.489,0,0,0,1.207-.431,1.915,1.915,0,0,1,.895-.331,1.818,1.818,0,0,1,.873.332,1.989,1.989,0,0,0,2.467,0,1.313,1.313,0,0,1,1.746,0,1.989,1.989,0,0,0,2.467,0,1.313,1.313,0,0,1,1.746,0,1.989,1.989,0,0,0,2.467,0,1.313,1.313,0,0,1,1.746,0,1.989,1.989,0,0,0,2.467,0,1.82,1.82,0,0,1,.873-.332,1.917,1.917,0,0,1,.895.329,2.48,2.48,0,0,0,1.206.432,2.77,2.77,0,0,0,1.332-.426,2.2,2.2,0,0,1,.984-.335,3.607,3.607,0,0,1,1.056.353c.371.179.66.356.66.356h0a.36.36,0,0,0,.187.052h2.107a.359.359,0,1,0,0-.718H107.65c-.07-.042-.274-.167-.624-.336a3.537,3.537,0,0,0-1.345-.425h-.1ZM79.97,29.745a1.435,1.435,0,1,0,1.435,1.435A1.44,1.44,0,0,0,79.97,29.745Zm8.578,0a1.435,1.435,0,1,0,1.436,1.435A1.44,1.44,0,0,0,88.548,29.745Zm8.477,0a1.435,1.435,0,1,0,1.436,1.435A1.441,1.441,0,0,0,97.025,29.745Zm8.578,0a1.435,1.435,0,1,0,1.435,1.435A1.441,1.441,0,0,0,105.6,29.745Zm-25.633.718a.717.717,0,1,1-.718.717A.712.712,0,0,1,79.97,30.463Zm4.365,0a.717.717,0,1,0,.718.717A.723.723,0,0,0,84.335,30.463Zm4.213,0a.717.717,0,1,1-.718.717A.712.712,0,0,1,88.548,30.463Zm4.365,0a.717.717,0,1,0,.718.717A.723.723,0,0,0,92.913,30.463Zm4.111,0a.717.717,0,1,1-.718.717A.712.712,0,0,1,97.025,30.463Zm4.365,0a.717.717,0,1,0,.718.717A.723.723,0,0,0,101.39,30.463Zm4.213,0a.717.717,0,1,1-.718.717A.712.712,0,0,1,105.6,30.463Z" transform="translate(351.171 4246.391)" fill="#fff" stroke="#fff" stroke-width="0.2"/>
  </g>
</svg>
