<svg xmlns="http://www.w3.org/2000/svg" xmlns:xlink="http://www.w3.org/1999/xlink" width="60" height="60" viewBox="0 0 60 60">
  <defs>
    <clipPath id="clip-path">
      <rect id="Rectangle_145275" data-name="Rectangle 145275" width="42.125" height="36" fill="#2474bb"/>
    </clipPath>
  </defs>
  <g id="Group_100859" data-name="Group 100859" transform="translate(-691 -1101)">
    <circle id="Ellipse_356" data-name="Ellipse 356" cx="30" cy="30" r="30" transform="translate(691 1101)" fill="#f0f5f2"/>
    <g id="Group_100794" data-name="Group 100794" transform="translate(700 1113)">
      <g id="Group_100793" data-name="Group 100793" transform="translate(0 0)" clip-path="url(#clip-path)">
        <path id="Path_71975" data-name="Path 71975" d="M42.125,34.291c-.048.109-.1.218-.142.331A2.055,2.055,0,0,1,39,35.705c-1.3-.794-2.551-1.654-3.8-2.525a1.875,1.875,0,0,1-.794-1.8,1.245,1.245,0,0,0-.7-1.3c-2.56-1.665-5.09-3.377-7.638-5.06a.861.861,0,0,0-.549-.083,19.128,19.128,0,0,1-2.1.313c-2.152.042-4.3.022-6.456.012a4.11,4.11,0,0,0-2.4.724q-3.2,2.161-6.431,4.28a.791.791,0,0,0-.429.784,4.087,4.087,0,0,1-.109,1.135,1.941,1.941,0,0,1-.881,1.146c-1.129.752-2.255,1.508-3.387,2.255a2.048,2.048,0,0,1-2.253.123A2.058,2.058,0,0,1,0,33.772V20.5a2.119,2.119,0,0,1,.993-1.873q1.623-1.083,3.248-2.164a2.13,2.13,0,0,1,3.459,1.2l3.268-2.178a2.387,2.387,0,0,1,.192-4.171,2.334,2.334,0,0,1,1.159-2.942,2.141,2.141,0,0,1,.147-1.891,7.811,7.811,0,0,1,.744-.8.56.56,0,0,0,.168-.374A2.1,2.1,0,0,1,15.25,2.62c.543-.075,1.087-.148,1.625-.249.109-.02.276-.154.284-.246A2.143,2.143,0,0,1,18.944.051C18.968.045,18.985.017,19,0h4.361a2.855,2.855,0,0,1,1.968,1.807c.6,1.347,1.308,2.649,1.887,4.006a1.564,1.564,0,0,0,1.517,1.121,1.977,1.977,0,0,1,1.834,1.852,5.954,5.954,0,0,1-.078,1.04,2.119,2.119,0,0,1,1.182,2.206.9.9,0,0,0,.418,1.023,1.681,1.681,0,0,1,.614.889,11.192,11.192,0,0,1,.161,1.736,2.462,2.462,0,0,1,1.115,1.425,3.306,3.306,0,0,0,.4.65,2.215,2.215,0,0,1,3.649-1.215c.836.638,1.732,1.2,2.627,1.756a3.1,3.1,0,0,1,1.464,1.686ZM12.194,16.351c-1.442.962-2.882,1.913-4.305,2.885a.636.636,0,0,0-.154.46q-.014,4.379-.006,8.756c0,.115.016.229.025.384.114-.067.186-.1.251-.147,1.938-1.293,3.881-2.576,5.81-3.881a5.409,5.409,0,0,1,3.131-.948c2.166.009,4.332-.011,6.5.008a4.575,4.575,0,0,0,2.9-.967c1.912-1.449,3.834-2.88,5.751-4.319a2.216,2.216,0,0,0,.34-.3.857.857,0,0,0,.062-1.067.844.844,0,0,0-.964-.374,2.587,2.587,0,0,0-.418.165c-1.347.61-2.687,1.237-4.045,1.815a1.027,1.027,0,0,1-.8-.051.7.7,0,0,1-.245-.625,1.11,1.11,0,0,1,.533-.6c1.4-.664,2.81-1.291,4.221-1.927a.954.954,0,0,0,.647-.731.865.865,0,0,0-1.23-.925c-1.357.474-2.707.965-4.06,1.447-.525.187-.911.045-1.049-.376s.078-.755.6-.94q2.012-.713,4.015-1.45a.832.832,0,0,0,.594-1.026.823.823,0,0,0-1.018-.6c-.365.055-.727.139-1.088.211-1.1.22-2.2.446-3.3.656a.7.7,0,0,1-.307-1.358c.119-.036.24-.056.362-.081,1.194-.242,2.389-.477,3.582-.725a.731.731,0,0,0,.666-.713.741.741,0,0,0-.716-.709c-.65-.1-1.311-.148-1.949-.295-1.969-.454-3.859.067-5.785.382a2.587,2.587,0,0,1-1.452,2.453,2.562,2.562,0,0,1-1.3,3.424,2.74,2.74,0,0,1-4.329,3.184c-.482-.362-.964-.722-1.464-1.095m23.6,8.444c0,2.163.006,4.326,0,6.49a1.026,1.026,0,0,0,.5.959c1.068.692,2.124,1.4,3.178,2.116a.8.8,0,0,0,.881.126.793.793,0,0,0,.374-.8q0-6.533,0-13.062a.991.991,0,0,0-.5-.917c-1.056-.686-2.1-1.389-3.145-2.093a.811.811,0,0,0-.912-.151.831.831,0,0,0-.377.845c0,2.164,0,4.327,0,6.491M1.4,27.148q0,3.265,0,6.532a.793.793,0,0,0,.373.806.805.805,0,0,0,.881-.125c1.056-.711,2.111-1.422,3.178-2.116a1,1,0,0,0,.5-.917q-.012-6.533,0-13.064a.807.807,0,0,0-.376-.806.781.781,0,0,0-.876.128c-1.056.713-2.11,1.427-3.179,2.118a1.014,1.014,0,0,0-.5.954c.012,2.163.006,4.327.006,6.49m32.432-8.186c-2.2,1.8-4.466,3.373-6.671,5.088,2.415,1.608,4.795,3.192,7.235,4.818v-.554c0-2.779-.017-5.559.014-8.338.006-.55-.154-.879-.579-1.015m-7.8-12.411c-.786-1.633-1.514-3.162-2.258-4.683a.871.871,0,0,0-.856-.462c-1.137,0-2.273,0-3.41,0-.532,0-.859.231-.926.63a.862.862,0,0,0,.681,1.012c.6.187,1.205.357,1.8.558a1.325,1.325,0,0,1,.9,1.725c-.168.518-.407,1.012-.613,1.517a13,13,0,0,1,4.684-.3m-9.194,8.887a1.276,1.276,0,0,0-.706-1.174q-1.817-.863-3.661-1.668a.892.892,0,0,0-.9,1.517c1.076.826,2.16,1.644,3.261,2.436a1.186,1.186,0,0,0,1.325.034,1.3,1.3,0,0,0,.686-1.145M13.337,9.6a.871.871,0,0,0-.887.61.834.834,0,0,0,.424,1.012c1.265.589,2.534,1.169,3.816,1.72A1.025,1.025,0,0,0,18,12.4a1.049,1.049,0,0,0-.63-1.464c-1.251-.446-2.509-.862-3.766-1.286a1.777,1.777,0,0,0-.27-.053m5.992-1.009A1.106,1.106,0,0,0,18.444,7.5c-.373-.086-.75-.153-1.126-.228-.886-.176-1.77-.368-2.66-.522a.877.877,0,0,0-1.059.619.864.864,0,0,0,.671,1.021c.284.1.569.195.855.292.906.309,1.807.633,2.721.92a1.1,1.1,0,0,0,1.484-1.01m1.272-3.7a13.475,13.475,0,0,1-1.364-.393c-.488-.193-.94-.469-1.416-.694a.794.794,0,0,0-.416-.08c-.666.087-1.329.192-1.991.3-.472.076-.7.313-.7.706s.214.621.655.713c1.166.242,2.333.476,3.5.714A1.32,1.32,0,0,0,20.6,4.884" transform="translate(0 0)" fill="#2474bb"/>
        <path id="Path_71976" data-name="Path 71976" d="M25.713,20.093a.706.706,0,0,1-.745.658A.685.685,0,0,1,24.322,20a.7.7,0,0,1,.714-.644.717.717,0,0,1,.677.734" transform="translate(13.603 10.827)" fill="#2474bb"/>
        <path id="Path_71977" data-name="Path 71977" d="M3.2,20.057a.685.685,0,0,1-.7.7.706.706,0,0,1-.692-.713.721.721,0,0,1,.689-.683.7.7,0,0,1,.7.7" transform="translate(1.007 10.827)" fill="#2474bb"/>
      </g>
    </g>
  </g>
</svg>
