<svg xmlns="http://www.w3.org/2000/svg" xmlns:xlink="http://www.w3.org/1999/xlink" width="66" height="66" viewBox="0 0 66 66">
  <defs>
    <filter id="Ellipse_336" x="0" y="0" width="66" height="66" filterUnits="userSpaceOnUse">
      <feOffset dy="3" input="SourceAlpha"/>
      <feGaussianBlur stdDeviation="3" result="blur"/>
      <feFlood flood-opacity="0.161"/>
      <feComposite operator="in" in2="blur"/>
      <feComposite in="SourceGraphic"/>
    </filter>
    <clipPath id="clip-path">
      <rect id="Rectangle_145267" data-name="Rectangle 145267" width="27.925" height="28" fill="#fff"/>
    </clipPath>
  </defs>
  <g id="Group_100786" data-name="Group 100786" transform="translate(-484 -3932)">
    <g transform="matrix(1, 0, 0, 1, 484, 3932)" filter="url(#Ellipse_336)">
      <g id="Ellipse_336-2" data-name="Ellipse 336" transform="translate(9 6)" fill="#2474bb" stroke="rgba(14,58,98,0.36)" stroke-width="2">
        <circle cx="24" cy="24" r="24" stroke="none"/>
        <circle cx="24" cy="24" r="23" fill="none"/>
      </g>
    </g>
    <g id="Group_100769" data-name="Group 100769" transform="translate(503.037 3948)">
      <g id="Group_100768" data-name="Group 100768" clip-path="url(#clip-path)">
        <path id="Path_71960" data-name="Path 71960" d="M14.825,28H13.132c-.413-.053-.827-.1-1.239-.16a13.359,13.359,0,0,1-7.3-3.463A13.612,13.612,0,0,1,.2,11.672a13.038,13.038,0,0,1,4.84-8.379A13.437,13.437,0,0,1,19.379,1.182,13.466,13.466,0,0,1,27.71,11.569c.094.469.145.947.215,1.421v2.02a1.548,1.548,0,0,0-.046.21,13.047,13.047,0,0,1-1.2,4.588A13.771,13.771,0,0,1,16.654,27.73c-.6.128-1.219.181-1.829.269M11.711,8.886c-.006-.029-.015-.082-.026-.135a3.789,3.789,0,0,1,.944-3.511c.263-.289.547-.559.827-.832a.539.539,0,0,1,.858.006c.28.273.564.543.827.832a3.741,3.741,0,0,1,1,3.11c-.024.192-.062.382-.085.522.666-.013,1.319-.05,1.969-.024a.564.564,0,0,0,.484-.192Q20.3,6.862,22.1,5.071c.062-.062.12-.128.211-.225A12.072,12.072,0,0,0,10.654,2.117,11.867,11.867,0,0,0,1.757,12,12.067,12.067,0,0,0,4.808,22.41c.091-.113.143-.189.207-.253C6.3,20.869,7.582,19.578,8.878,18.3a.887.887,0,0,0,.3-.713,1.312,1.312,0,0,1,.129-.7c.113-.177.374-.259.552-.371-.153-.321-.344-.671-.49-1.039a4.526,4.526,0,0,1-.194-1.858,1.212,1.212,0,0,1,.158-.638c.115-.16.358-.229.548-.34-.114-.2-.265-.442-.384-.694a4.981,4.981,0,0,1-.3-2.542.608.608,0,0,1,.66-.561c.614,0,1.228.028,1.863.044M5.655,23.205A12.369,12.369,0,0,0,23.1,5.706a.454.454,0,0,0-.064.046Q20.865,7.922,18.7,10.1a.534.534,0,0,0-.129.335,3.8,3.8,0,0,1-.488,1.824c-.084.146-.178.287-.273.439.509.063.744.266.765.679a4.553,4.553,0,0,1-.726,3.144c-.008.011,0,.034,0,.052.538.075.728.29.731.827,0,.264,0,.527,0,.791a3.643,3.643,0,0,1-3.072,3.6c-.344.058-.7.054-1.063.079,0,.3,0,.579,0,.86s.005.582,0,.873a.549.549,0,1,1-1.1.013c0-.091,0-.182,0-.273,0-.488,0-.977,0-1.5a3.754,3.754,0,0,1-3.96-2.366L5.655,23.205M13.876,10.16a2.807,2.807,0,0,0,0-4.585,2.8,2.8,0,0,0,0,4.585m.6,2.8a2.556,2.556,0,0,0,2.943-3,2.566,2.566,0,0,0-2.943,3m-1.189,0a2.571,2.571,0,0,0-2.964-3,2.582,2.582,0,0,0,2.964,3m-.007,7.756a2.557,2.557,0,0,0-2.968-3,2.6,2.6,0,0,0,2.968,3m1.185-.008a2.582,2.582,0,0,0,2.968-3,2.574,2.574,0,0,0-2.968,3m-4.144-6.886a2.585,2.585,0,0,0,2.954,3.009,2.568,2.568,0,0,0-2.954-3.009m7.123.011a2.557,2.557,0,0,0-2.955,3.01,2.6,2.6,0,0,0,2.955-3.01" transform="translate(0 0)" fill="#fff"/>
      </g>
    </g>
  </g>
</svg>
