<svg xmlns="http://www.w3.org/2000/svg" xmlns:xlink="http://www.w3.org/1999/xlink" width="60" height="60" viewBox="0 0 60 60">
  <defs>
    <clipPath id="clip-path">
      <rect id="Rectangle_145276" data-name="Rectangle 145276" width="33.528" height="37.983" transform="translate(0 0)" fill="#2474bb" stroke="rgba(0,0,0,0)" stroke-width="1"/>
    </clipPath>
  </defs>
  <g id="Group_100858" data-name="Group 100858" transform="translate(-691 -1185)">
    <circle id="Ellipse_359" data-name="Ellipse 359" cx="30" cy="30" r="30" transform="translate(691 1185)" fill="#f0f5f2"/>
    <g id="Group_100796" data-name="Group 100796" transform="translate(704 1196)">
      <g id="Group_100795" data-name="Group 100795" clip-path="url(#clip-path)">
        <path id="Path_71978" data-name="Path 71978" d="M14.391,37.983a1.448,1.448,0,0,1-.906-1.6c.038-.5.007-1.011.007-1.578-.277,0-.531,0-.784,0A1.25,1.25,0,0,1,11.4,33.611a10.816,10.816,0,0,1,.006-1.406,1.25,1.25,0,0,1,.64-1.024.492.492,0,0,0,.183-.348c.02-.494-.008-.99.015-1.484a.427.427,0,0,0-.3-.471A12.126,12.126,0,0,1,7.478,25.4a12.479,12.479,0,0,1-2.821-8.42,12.383,12.383,0,0,1,2.595-7.31A12.3,12.3,0,0,1,14.3,5.057a12.174,12.174,0,0,1,6.934.321.761.761,0,0,0,.692-.032.847.847,0,0,1,1.022.191,7.2,7.2,0,0,1,.523.525.363.363,0,0,0,.477.125.367.367,0,0,0,.249-.425c-.011-.247-.012-.495,0-.742a.941.941,0,0,1,.974-.952q.964-.015,1.928,0a.921.921,0,0,1,.96.956c.009.234.012.47,0,.7a.392.392,0,0,0,.259.459c.246.1.363,0,.5-.156a6.5,6.5,0,0,1,.5-.5.914.914,0,0,1,1.333.012c.486.457.954.934,1.412,1.42a.921.921,0,0,1-.012,1.3c-.157.175-.324.341-.495.5s-.267.272-.156.533.29.252.5.249.445-.006.667,0a.926.926,0,0,1,.938.907c.022.68.02,1.361,0,2.04a.928.928,0,0,1-.958.926c-.234.006-.47.015-.7,0a.384.384,0,0,0-.45.27.364.364,0,0,0,.122.476,7.726,7.726,0,0,1,.546.555A.918.918,0,0,1,32.081,16c-.464.5-.936.989-1.444,1.439a3.5,3.5,0,0,1-.846.4c-.028.313-.055.716-.1,1.118s-.285.608-.63.565c-.317-.04-.49-.3-.466-.686.034-.567.067-1.134.091-1.7a2.506,2.506,0,0,0-.045-.391c-.556.085-.574.1-.575.592,0,.223.006.446-.006.668a.913.913,0,0,1-.927.91c-.655.012-1.31.01-1.965,0a.937.937,0,0,1-.964-.923c-.018-.283.019-.572-.018-.851a.48.48,0,0,0-.251-.325.485.485,0,0,0-.4.066c-.2.154-.366.366-.558.54a.915.915,0,0,1-1.358.012c-.485-.458-.953-.936-1.411-1.421a.928.928,0,0,1-.008-1.28,6.5,6.5,0,0,1,.546-.555.4.4,0,0,0,.116-.514c-.09-.229-.234-.244-.429-.238-.26.008-.52.01-.779,0a.912.912,0,0,1-.881-.881c-.016-.7-.017-1.41,0-2.114a.914.914,0,0,1,.891-.872c.246-.012.494-.01.741,0,.206.006.366,0,.461-.249a.4.4,0,0,0-.129-.511c-.167-.147-.32-.31-.472-.472a.954.954,0,0,1,0-1.418c.153-.16.32-.305.568-.54-.709-.157-1.309-.334-1.922-.42A11.449,11.449,0,0,0,6.57,13.117a11.34,11.34,0,0,0,.643,9.9,10.99,10.99,0,0,0,5.367,4.918,1.061,1.061,0,0,1,.776,1.2c-.05.6-.011,1.21-.011,1.844h.729V27.058c-.066-.014-.146-.034-.227-.047a.908.908,0,0,1-.8-.879c-.016-.494-.015-.989,0-1.483a.908.908,0,0,1,.919-.917c.457-.013.915-.012,1.372,0a.926.926,0,0,1,.964.92c.022.481.022.965,0,1.446-.025.556-.329.823-1.057.962v3.927h1.666V26.694c0-.086,0-.173,0-.259.013-.409.22-.647.557-.644s.547.246.552.655c.008.594,0,1.187,0,1.781v2.759h1.093a.269.269,0,0,0,.04-.095c0-1.348.01-2.7,0-4.043a.622.622,0,0,0-.152-.4c-1.382-1.36-2.775-2.711-4.188-4.085-.78.364-.933.335-1.616-.354-.217-.22-.44-.435-.651-.66a.933.933,0,0,1-.014-1.359q.456-.488.941-.948a.918.918,0,0,1,1.383-.029c.346.317.676.653.99,1,.389.43.333.877-.167,1.475.086.092.174.19.267.284,1.227,1.237,2.448,2.482,3.689,3.706a2.008,2.008,0,0,1,.646,1.55c-.023,1.175-.007,2.35-.007,3.524v.429h.778V24.822c-.868-.178-1.071-.431-1.071-1.338,0-.334-.01-.668,0-1a.948.948,0,0,1,1-1c.419-.014.84-.013,1.26,0a.948.948,0,0,1,1.008,1.031c.009.346,0,.692,0,1.039,0,.832-.224,1.106-1.037,1.268v3.008c.6-.372,1.163-.676,1.676-1.047a11.289,11.289,0,0,0,3.477-4.033,5,5,0,0,1,.247-.456.553.553,0,0,1,.739-.216.528.528,0,0,1,.206.767,20.447,20.447,0,0,1-1.21,2.034,12.077,12.077,0,0,1-4.834,3.988.481.481,0,0,0-.33.532c.025.481,0,.965.016,1.446a.491.491,0,0,0,.19.345,1.374,1.374,0,0,1,.663,1.21c.014.358.013.717,0,1.075A1.3,1.3,0,0,1,21.683,34.8c-.231,0-.462,0-.742,0,0,.555-.029,1.072.006,1.586a1.434,1.434,0,0,1-.919,1.592Zm5.5-25.661c.861-.045,1.623-.04,2.024.957s-.189,1.521-.784,2.079L22.3,16.517c.523-.47.924-1.14,1.864-.842,1.1.349,1.251,1.131,1.124,2.109h1.67c-.049-.851-.052-1.612.936-2.031,1.014-.429,1.515.192,2.057.759l1.187-1.16c-.6-.556-1.19-1.074-.784-2.078s1.2-.986,2.019-.954V10.655c-.876.065-1.623.027-2.026-.963s.216-1.51.768-2.049L29.964,6.455c-.559.606-1.071,1.2-2.08.77-.99-.419-.958-1.2-.93-2.018H25.29c.077.867.062,1.616-.93,2.029-1.009.421-1.5-.213-2.028-.75l-1.2,1.143c.62.564,1.184,1.095.777,2.094s-1.18.977-2.018.938Zm-2.678,21.37h3.667c1.074,0,1.074,0,1.069-1.075,0-.485-.012-.495-.5-.495H13.591c-1.132,0-1.123,0-1.112,1.154,0,.322.115.426.436.423,1.432-.014,2.865-.006,4.3-.006m-2.581,2.666c-.048.511-.048.512.408.512h4.369c.453,0,.459-.009.376-.512Zm-.012-1.174h5.218c-.018-.149-.031-.252-.044-.355H14.619Zm-1.14-14.52.683.66.688-.678-.684-.684-.687.7M21.1,23.64h1.019V22.59c-.29,0-.558-.014-.823.009a.283.283,0,0,0-.188.2c-.022.278-.008.559-.008.845m-5.926,1.225h-1v1.023h1Z" fill="#2474bb" stroke="rgba(0,0,0,0)" stroke-width="1"/>
        <path id="Path_71979" data-name="Path 71979" d="M0,15.8a.726.726,0,0,1,.858-.391c.424.075.857.1,1.283.16a.552.552,0,0,1,.511.61.579.579,0,0,1-.677.482c-.4-.04-.807-.1-1.212-.135A.9.9,0,0,1,0,16.095Z" fill="#2474bb" stroke="rgba(0,0,0,0)" stroke-width="1"/>
        <path id="Path_71980" data-name="Path 71980" d="M16.909,18.338c-.948-.249-1.09-.437-1.09-1.407,0-.321-.01-.642,0-.963a.955.955,0,0,1,1.017-.986c.432-.005.864-.008,1.3,0a.924.924,0,0,1,.95.929c.017.358.007.716.007,1.074,0,.912-.171,1.133-1.071,1.346v1.9c0,.445,0,.889,0,1.334,0,.462-.213.715-.572.708s-.538-.248-.539-.7c0-1.074,0-2.147,0-3.241m.043-1.2h1V16.115h-1Z" fill="#2474bb" stroke="rgba(0,0,0,0)" stroke-width="1"/>
        <path id="Path_71981" data-name="Path 71981" d="M12.351,13.723c.222,0,.444,0,.666,0a.928.928,0,0,1,.96.921c.023.492.022.988,0,1.48a.9.9,0,0,1-.9.9,13.872,13.872,0,0,1-1.442,0,.914.914,0,0,1-.907-.934c-.021-.455-.019-.913,0-1.369a.953.953,0,0,1,1.039-1c.2,0,.395,0,.593,0m.5,1.143h-1v1.021h1Z" fill="#2474bb" stroke="rgba(0,0,0,0)" stroke-width="1"/>
        <path id="Path_71982" data-name="Path 71982" d="M14.859,12.761a3.682,3.682,0,0,0-.407,0,1.022,1.022,0,0,1-1.2-1.21c.032-.38,0-.765.009-1.147a.9.9,0,0,1,.9-.934c.48-.02.962-.019,1.442,0a.921.921,0,0,1,.919.923c.02.468.018.938,0,1.406a.946.946,0,0,1-1,.96c-.222,0-.444,0-.666,0M14.4,11.628h.984V10.59H14.4Z" fill="#2474bb" stroke="rgba(0,0,0,0)" stroke-width="1"/>
        <path id="Path_71983" data-name="Path 71983" d="M16.91,1.3c0-.234-.008-.468,0-.7A.562.562,0,0,1,17.44,0a.552.552,0,0,1,.572.556c.02.516.019,1.035,0,1.551a.549.549,0,1,1-1.1-.03c-.013-.258,0-.517,0-.776" fill="#2474bb" stroke="rgba(0,0,0,0)" stroke-width="1"/>
        <path id="Path_71984" data-name="Path 71984" d="M9.465,4.882c-.083.1-.191.312-.352.367a.622.622,0,0,1-.557-.1,10.528,10.528,0,0,1-.985-1.5.651.651,0,0,1,.183-.59c.126-.105.514-.121.588-.024.4.521.741,1.089,1.1,1.642.019.028.009.072.024.213" fill="#2474bb" stroke="rgba(0,0,0,0)" stroke-width="1"/>
        <path id="Path_71985" data-name="Path 71985" d="M3.776,11.6c.007.442-.3.742-.636.63a13.018,13.018,0,0,1-1.654-.708.458.458,0,0,1-.17-.648.483.483,0,0,1,.636-.294c.526.2,1.048.424,1.553.674.14.07.215.272.271.346" fill="#2474bb" stroke="rgba(0,0,0,0)" stroke-width="1"/>
        <path id="Path_71986" data-name="Path 71986" d="M.863,21.472C.5,21.464.294,21.33.235,21.039a.493.493,0,0,1,.371-.63c.537-.127,1.083-.225,1.629-.3a.542.542,0,0,1,.193,1.063c-.537.125-1.084.209-1.565.3" fill="#2474bb" stroke="rgba(0,0,0,0)" stroke-width="1"/>
        <path id="Path_71987" data-name="Path 71987" d="M12.677.771c.084.079.305.193.371.367a14.464,14.464,0,0,1,.462,1.515.512.512,0,0,1-.36.671.532.532,0,0,1-.691-.386c-.157-.466-.3-.936-.427-1.412-.109-.418.138-.756.645-.755" fill="#2474bb" stroke="rgba(0,0,0,0)" stroke-width="1"/>
        <path id="Path_71988" data-name="Path 71988" d="M5.6,8.432A2.834,2.834,0,0,1,5.159,8.2Q4.61,7.763,4.081,7.3a.571.571,0,0,1-.127-.819.56.56,0,0,1,.825-.035A10.919,10.919,0,0,1,5.9,7.408a.777.777,0,0,1,.137.628c-.039.156-.279.263-.435.4" fill="#2474bb" stroke="rgba(0,0,0,0)" stroke-width="1"/>
        <path id="Path_71989" data-name="Path 71989" d="M3.775,24.291c.2.179.421.288.465.447.05.177,0,.51-.117.584a11.858,11.858,0,0,1-1.669.842.579.579,0,0,1-.51-.233c-.087-.156-.088-.526.013-.593.566-.375,1.175-.686,1.818-1.047" fill="#2474bb" stroke="rgba(0,0,0,0)" stroke-width="1"/>
        <path id="Path_71990" data-name="Path 71990" d="M6.458,28.053c.124.1.339.179.4.326a.657.657,0,0,1-.036.57,13.558,13.558,0,0,1-1.244,1.2.477.477,0,0,1-.7-.078.47.47,0,0,1-.044-.671c.4-.428.843-.822,1.277-1.22.065-.06.178-.068.344-.127" fill="#2474bb" stroke="rgba(0,0,0,0)" stroke-width="1"/>
        <path id="Path_71991" data-name="Path 71991" d="M26.158,7.6c.375.07.754.123,1.123.216A.557.557,0,1,1,27,8.88a2.865,2.865,0,0,0-1.712.01,2.752,2.752,0,0,0-1.771,3.318,2.72,2.72,0,0,0,3.272,1.952A2.756,2.756,0,0,0,28.8,10.948c-.023-.109-.055-.216-.074-.325a.555.555,0,1,1,1.076-.271,3.854,3.854,0,0,1-4.956,4.777A3.886,3.886,0,0,1,26.158,7.6" fill="#2474bb" stroke="rgba(0,0,0,0)" stroke-width="1"/>
        <path id="Path_71992" data-name="Path 71992" d="M26.154,13.437a1.944,1.944,0,1,1,1.921-1.942,1.951,1.951,0,0,1-1.921,1.942m.8-1.961a.816.816,0,0,0-.834-.811.828.828,0,0,0,.033,1.655.816.816,0,0,0,.8-.844" fill="#2474bb" stroke="rgba(0,0,0,0)" stroke-width="1"/>
      </g>
    </g>
  </g>
</svg>
