<svg xmlns="http://www.w3.org/2000/svg" xmlns:xlink="http://www.w3.org/1999/xlink" width="66" height="66" viewBox="0 0 66 66">
  <defs>
    <filter id="Ellipse_337" x="0" y="0" width="66" height="66" filterUnits="userSpaceOnUse">
      <feOffset dy="3" input="SourceAlpha"/>
      <feGaussianBlur stdDeviation="3" result="blur"/>
      <feFlood flood-opacity="0.161"/>
      <feComposite operator="in" in2="blur"/>
      <feComposite in="SourceGraphic"/>
    </filter>
    <clipPath id="clip-path">
      <rect id="Rectangle_145266" data-name="Rectangle 145266" width="31" height="33" transform="translate(-2 -3)" fill="#fff" stroke="#fff" stroke-width="0.4"/>
    </clipPath>
  </defs>
  <g id="Group_100787" data-name="Group 100787" transform="translate(-398 -4067)">
    <g transform="matrix(1, 0, 0, 1, 398, 4067)" filter="url(#Ellipse_337)">
      <g id="Ellipse_337-2" data-name="Ellipse 337" transform="translate(9 6)" fill="#2474bb" stroke="rgba(14,58,98,0.36)" stroke-width="2">
        <circle cx="24" cy="24" r="24" stroke="none"/>
        <circle cx="24" cy="24" r="23" fill="none"/>
      </g>
    </g>
    <g id="Group_100767" data-name="Group 100767" transform="translate(418 4084)">
      <g id="Group_100766" data-name="Group 100766" transform="translate(0 0)" clip-path="url(#clip-path)">
        <path id="Path_71957" data-name="Path 71957" d="M0,2.666c.177.572.318,1.159.544,1.71a5.878,5.878,0,0,0,.711,1.238,3.324,3.324,0,0,0,2.614,1.37L4.21,7a1.365,1.365,0,0,1-.076.154,10.333,10.333,0,0,0-1.67,4.653A21.841,21.841,0,0,0,2.3,15.043a10.031,10.031,0,0,0,3.2,7.046,16.738,16.738,0,0,0,5.661,3.536,22.489,22.489,0,0,0,6.531,1.568,1.2,1.2,0,0,1,.178.041h2.021c.554-.053,1.109-.1,1.661-.16a10.871,10.871,0,0,0,3.157-.782,3.838,3.838,0,0,0,2.506-4.249,6.439,6.439,0,0,0-.779-2.681,38.235,38.235,0,0,1-3.3-8.286,19.039,19.039,0,0,0-1.54-3.89,7.1,7.1,0,0,0-5.129-3.72,15.733,15.733,0,0,0-8.4.635c-.2.073-.392.163-.585.252s-.362.176-.567.277a3.216,3.216,0,0,1,.03-2.49A3.336,3.336,0,0,1,7.9.884a.68.68,0,0,0,.249-.43A.59.59,0,0,0,7.9.063c-.169-.125-.354-.045-.51.081A4.366,4.366,0,0,0,5.951,2.207l-.088.269a.413.413,0,0,1-.092-.05A3.467,3.467,0,0,0,3.085,1.373,6.89,6.89,0,0,0,.34,2.019,1.7,1.7,0,0,0,0,2.294ZM19.317,26.309c-.425,0-.852.025-1.275,0a21.2,21.2,0,0,1-6.31-1.47A16.165,16.165,0,0,1,6.01,21.254a9.169,9.169,0,0,1-2.745-5.448,14.468,14.468,0,0,1,.361-5.274A7.571,7.571,0,0,1,8.751,4.8a14.982,14.982,0,0,1,7.166-.521A6.476,6.476,0,0,1,21.1,8.253a26.5,26.5,0,0,1,1.175,3.154,39.707,39.707,0,0,0,3.349,8.357,5.623,5.623,0,0,1,.684,2.325,2.99,2.99,0,0,1-1.872,3.321,6.661,6.661,0,0,1-.866.334,15.543,15.543,0,0,1-4.251.565M.956,2.69c.555-.13,1.081-.288,1.618-.373A2.805,2.805,0,0,1,5.763,4a7.528,7.528,0,0,1,.325,1.035A.239.239,0,0,1,6,5.216c-.235.2-.478.394-.72.588a1,1,0,0,1-.273.2,2.972,2.972,0,0,1-3.045-.943A5.877,5.877,0,0,1,.956,2.69" transform="translate(-0.072 -0.069)" fill="#fff" stroke="#fff" stroke-width="0.4"/>
        <path id="Path_71958" data-name="Path 71958" d="M16.364,14.5a.454.454,0,1,0-.078.9,16.3,16.3,0,0,1,1.659.348,4.556,4.556,0,0,1,2.742,2.435,21.214,21.214,0,0,1,1.285,3.452c.063.2.118.408.2.605a.449.449,0,0,0,.852-.281A26.712,26.712,0,0,0,21.5,17.777a5.73,5.73,0,0,0-4.74-3.23l-.393-.049" transform="translate(-1.414 -9.505)" fill="#fff" stroke="#fff" stroke-width="0.4"/>
        <path id="Path_71959" data-name="Path 71959" d="M39.022,14.792a.451.451,0,1,0,.9-.037.451.451,0,0,0-.9.037" transform="translate(-26.385 -9.397)" fill="#fff" stroke="#fff" stroke-width="0.4"/>
      </g>
    </g>
  </g>
</svg>
