<svg xmlns="http://www.w3.org/2000/svg" xmlns:xlink="http://www.w3.org/1999/xlink" width="60" height="60" viewBox="0 0 60 60">
  <defs>
    <clipPath id="clip-path">
      <rect id="Rectangle_145278" data-name="Rectangle 145278" width="36.005" height="36" fill="#2474bb" stroke="rgba(0,0,0,0)" stroke-width="1"/>
    </clipPath>
  </defs>
  <g id="Group_100856" data-name="Group 100856" transform="translate(-967 -1101)">
    <circle id="Ellipse_357" data-name="Ellipse 357" cx="30" cy="30" r="30" transform="translate(967 1101)" fill="#f0f5f2"/>
    <g id="Group_100800" data-name="Group 100800" transform="translate(979 1113)">
      <g id="Group_100799" data-name="Group 100799" transform="translate(0 0)" clip-path="url(#clip-path)">
        <path id="Path_71998" data-name="Path 71998" d="M4.789,30.947a.844.844,0,0,1-.332-.794c.016-.492,0-.984.006-1.476A2.844,2.844,0,0,1,6.5,25.872c1.308-.443,2.617-.876,3.927-1.316a1.333,1.333,0,0,0,1.045-1.427,2.517,2.517,0,0,0-.827-2.271,4.958,4.958,0,0,1-1.508-3.706c0-.282-.009-.564,0-.844a1.076,1.076,0,0,0-.343-1.031.9.9,0,0,1-.235-.634,26.6,26.6,0,0,1,.03-2.669,3.356,3.356,0,0,1,3.277-3.033c1.828-.025,3.656-.028,5.484,0a3.991,3.991,0,0,1,3.9,3.958c.008.75.033,1.5-.014,2.248a1.554,1.554,0,0,1-.354.838.884.884,0,0,0-.211.55,13.669,13.669,0,0,1-.23,2.049,5.517,5.517,0,0,1-1.877,2.906.675.675,0,0,0-.208.431c-.027.432-.013.866-.008,1.3a1.238,1.238,0,0,0,.976,1.324c1.331.443,2.664.882,3.993,1.335A2.829,2.829,0,0,1,25.325,28.7c0,.5-.014,1.009.006,1.512a.739.739,0,0,1-.359.739h-.351a.742.742,0,0,1-.356-.741c.02-.492.006-.984,0-1.476a1.8,1.8,0,0,0-1.344-1.87c-1.042-.352-2.086-.691-3.125-1.053a.363.363,0,0,0-.471.136,5.745,5.745,0,0,1-8.881-.014.334.334,0,0,0-.44-.124c-1.051.362-2.107.7-3.159,1.059a1.8,1.8,0,0,0-1.331,1.812c-.008.528-.013,1.054,0,1.582a.669.669,0,0,1-.379.688ZM9.673,14.658c.088-.069.177-.135.262-.207q.893-.74,1.783-1.485c.843-.706.724-.648,1.66-.163,1.078.556,2.207,1.017,3.3,1.541a.917.917,0,0,1,.464.457.5.5,0,0,1-.739.545c-1.187-.52-2.364-1.065-3.538-1.615-.179-.083-.293-.116-.461.028-.685.587-1.385,1.156-2.075,1.736a.347.347,0,0,0-.135.221,13.8,13.8,0,0,0,.141,2.409,4.66,4.66,0,0,0,5.017,3.593,4.738,4.738,0,0,0,4.264-4.665c.014-.777.014-.775-.7-.976-.078-.022-.19-.039-.219-.094a1.206,1.206,0,0,1-.215-.545.424.424,0,0,1,.457-.4,2.351,2.351,0,0,1,.417.053c.269.047.539.1.836.15,0-.843.014-1.626,0-2.409A2.925,2.925,0,0,0,17.349,10c-1.817-.025-3.632-.019-5.449,0A2.284,2.284,0,0,0,9.64,12.046c-.072.836-.028,1.684-.034,2.527,0,.017.027.034.067.086m8.79,10.665c-1.222-.678-1.231-1.837-1.17-3.045a5.886,5.886,0,0,1-4.79,0c.085,1.225.023,2.364-1.162,3.043a4.681,4.681,0,0,0,7.122,0" transform="translate(2.524 5.052)" fill="#2474bb" stroke="rgba(0,0,0,0)" stroke-width="1"/>
        <path id="Path_71999" data-name="Path 71999" d="M0,9.361c.152-.143.3-.293.457-.424Q1.714,7.921,2.979,6.916c.37-.294.545-.3.9-.017.9.714,1.789,1.436,2.688,2.148a.774.774,0,0,1,.318.663c-.006,1.253,0,2.506,0,3.759,0,.512-.179.681-.706.683-1.826,0-3.654-.006-5.481.006A.709.709,0,0,1,0,13.79V9.361m5.83,3.719c0-1.06,0-2.077-.006-3.094a.431.431,0,0,0-.141-.29C5,9.14,4.314,8.6,3.634,8.045a.257.257,0,0,0-.392,0c-.34.287-.692.556-1.039.836-.381.31-.9.553-1.095.954a3.66,3.66,0,0,0-.053,1.454c0,.592,0,1.184,0,1.786Z" transform="translate(0 3.789)" fill="#2474bb" stroke="rgba(0,0,0,0)" stroke-width="1"/>
        <path id="Path_72000" data-name="Path 72000" d="M25.443,10.884c-.7-.268-1.352-.52-2-.768-.736-.28-.738-.287-.731-1.064.006-.7,0-1.393,0-2.155-.128.121-.205.2-.293.269a.478.478,0,0,1-.644,0,.494.494,0,0,1-.139-.661A1.175,1.175,0,0,1,22.9,5.892a1.1,1.1,0,0,1,.879,1.085c.011.586.014,1.173-.019,1.757a.449.449,0,0,0,.368.525c.511.169,1.009.373,1.51.567A1.119,1.119,0,0,1,25.569,12c-.536.171-1.07.346-1.609.5a.364.364,0,0,0-.321.407c0,.55-.042,1.1-.072,1.649a1.143,1.143,0,0,1-.816,1.178,1.119,1.119,0,0,1-1.313-.562c-.327-.457-.659-.912-.976-1.375a.313.313,0,0,0-.407-.147c-.6.174-1.2.332-1.8.482a1.088,1.088,0,0,1-1.206-.429,1.069,1.069,0,0,1,.033-1.308q.54-.759,1.107-1.5a.288.288,0,0,0,.016-.4c-.337-.493-.661-.995-.982-1.5a1.087,1.087,0,0,1,0-1.369,1.107,1.107,0,0,1,1.33-.337q1.067.35,2.13.711c.4.136.564.388.462.7-.111.334-.382.437-.81.3-.633-.208-1.264-.423-1.9-.633-.117-.039-.237-.069-.453-.13.45.691.843,1.3,1.237,1.9.382.587.382.611-.033,1.173a20.7,20.7,0,0,0-1.241,1.812c.547-.144,1.095-.285,1.638-.435,1.3-.359,1.076-.395,1.839.658.316.435.63.874.945,1.309.013.016.041.02.11.056.014-.139.03-.258.036-.377.03-.655.056-1.311.089-1.966.022-.462.117-.576.569-.721q1.071-.338,2.14-.683a.973.973,0,0,0,.124-.083" transform="translate(9.541 3.324)" fill="#2474bb" stroke="rgba(0,0,0,0)" stroke-width="1"/>
        <path id="Path_72001" data-name="Path 72001" d="M13.033,2.785A10.927,10.927,0,0,1,12.544,4.6c-.439.963-.987,1.88-1.5,2.812a.568.568,0,0,1-.611.321A10.433,10.433,0,0,1,6.1,6.325,2.732,2.732,0,0,1,4.71,3.739,2.642,2.642,0,0,1,7.638,1.313c.182.022.331.061.479-.15a2.6,2.6,0,0,1,3-1.026,2.824,2.824,0,0,1,1.917,2.649m-1.14.29c.014-1.164-.457-1.8-1.267-1.983a1.59,1.59,0,0,0-1.789.918c-.257.567-.379.62-.971.424A1.588,1.588,0,0,0,5.758,3.966a1.755,1.755,0,0,0,.951,1.5,8.666,8.666,0,0,0,3.4,1.142.4.4,0,0,0,.316-.179c.376-.674.771-1.341,1.079-2.046a8.5,8.5,0,0,0,.385-1.311" transform="translate(2.664 0)" fill="#2474bb" stroke="rgba(0,0,0,0)" stroke-width="1"/>
        <path id="Path_72002" data-name="Path 72002" d="M17.971,2.816c-.287.567-.562,1.1-.822,1.649a.281.281,0,0,0,.08.237A2.052,2.052,0,0,1,17.7,7.258,2.349,2.349,0,0,1,15.22,8.4c-.009,0-.022.006-.033.011-.448.661-.609.769-.926.611s-.348-.42-.108-1c-.31-.357-.628-.68-.9-1.04s-.2-.68.081-.857.547-.067.793.277c.146.205.316.392.525.644.4-.791.766-1.5,1.109-2.227.036-.075-.05-.235-.116-.331a2.12,2.12,0,0,1-.518-1.382,1.937,1.937,0,0,1,2.11-1.756c.161.016.274.027.368-.152.222-.431.5-.55.794-.388s.332.445.139.858c-.02.042-.038.085-.061.141.149.169.312.335.454.517.251.323.241.641-.011.841s-.536.146-.808-.188c-.036-.044-.075-.086-.146-.168m-2.3,4.575a1.243,1.243,0,0,0,1.14-.728A.857.857,0,0,0,16.571,5.6c-.293.58-.58,1.15-.9,1.79m.721-3.786c.2-.395.39-.778.594-1.187-.7.13-.992.713-.594,1.187" transform="translate(7.415 0.422)" fill="#2474bb" stroke="rgba(0,0,0,0)" stroke-width="1"/>
        <path id="Path_72003" data-name="Path 72003" d="M8.5,9.027c-.135.166-.227.395-.376.439a.754.754,0,0,1-.6-.1,13.48,13.48,0,0,1-1.006-.981c-.6-.6-1.211-1.208-1.812-1.814-.3-.3-.324-.6-.092-.832s.529-.216.827.081Q6.818,7.183,8.179,8.555a3.455,3.455,0,0,1,.324.471" transform="translate(2.529 3.158)" fill="#2474bb" stroke="rgba(0,0,0,0)" stroke-width="1"/>
        <path id="Path_72004" data-name="Path 72004" d="M19.158,14.623c-.006.495-.426.75-.78.531-.617-.382-1.219-.789-1.809-1.209a.515.515,0,0,1,.57-.854q.921.58,1.811,1.206a.879.879,0,0,1,.208.326" transform="translate(9.266 7.367)" fill="#2474bb" stroke="rgba(0,0,0,0)" stroke-width="1"/>
        <path id="Path_72005" data-name="Path 72005" d="M11.836,7c0,.282.008.562,0,.843a.521.521,0,1,1-1.042.013c-.017-.584-.017-1.172,0-1.756a.522.522,0,1,1,1.043.022c.009.293,0,.586,0,.879" transform="translate(6.105 3.159)" fill="#2474bb" stroke="rgba(0,0,0,0)" stroke-width="1"/>
        <path id="Path_72006" data-name="Path 72006" d="M6.753,12.739a2.854,2.854,0,0,1-.279.457c-.345.365-.7.717-1.064,1.067a.528.528,0,1,1-.742-.741,14.862,14.862,0,0,1,1.1-1.079.771.771,0,0,1,.6-.122c.149.038.252.26.392.418" transform="translate(2.528 6.969)" fill="#2474bb" stroke="rgba(0,0,0,0)" stroke-width="1"/>
        <path id="Path_72007" data-name="Path 72007" d="M16.19,7.534a1.921,1.921,0,0,1-.2.4,6.831,6.831,0,0,1-.591.6.515.515,0,0,1-.752-.013.5.5,0,0,1,.013-.724,3.58,3.58,0,0,1,.627-.606.676.676,0,0,1,.544-.063c.15.058.241.268.357.41" transform="translate(8.214 4.016)" fill="#2474bb" stroke="rgba(0,0,0,0)" stroke-width="1"/>
        <path id="Path_72008" data-name="Path 72008" d="M2.911,9.752c0,.553-.154.791-.511.8s-.544-.247-.544-.808.157-.816.534-.815.52.232.52.822" transform="translate(1.052 5.057)" fill="#2474bb" stroke="rgba(0,0,0,0)" stroke-width="1"/>
      </g>
    </g>
  </g>
</svg>
