<svg xmlns="http://www.w3.org/2000/svg" width="16" height="16" viewBox="0 0 16 16">
  <path id="Icon_awesome-plus-circle" data-name="Icon awesome-plus-circle" d="M8.563.563a8,8,0,1,0,8,8A8,8,0,0,0,8.563.563Zm4.645,8.9a.388.388,0,0,1-.387.387H9.853v2.968a.388.388,0,0,1-.387.387H7.659a.388.388,0,0,1-.387-.387V9.853H4.3a.388.388,0,0,1-.387-.387V7.659A.388.388,0,0,1,4.3,7.272H7.272V4.3a.388.388,0,0,1,.387-.387H9.466a.388.388,0,0,1,.387.387V7.272h2.968a.388.388,0,0,1,.387.387Z" transform="translate(-0.563 -0.563)" fill="#081e3b"/>
</svg>
