<svg xmlns="http://www.w3.org/2000/svg" xmlns:xlink="http://www.w3.org/1999/xlink" width="19.076" height="22" viewBox="0 0 19.076 22">
  <defs>
    <clipPath id="clip-path">
      <rect id="Rectangle_149489" data-name="Rectangle 149489" width="19.076" height="22" fill="#657283" stroke="#657283" stroke-linecap="round" stroke-linejoin="round" stroke-width="0.5"/>
    </clipPath>
  </defs>
  <g id="Group_101021" data-name="Group 101021" transform="translate(2 2)">
    <g id="Group_101020" data-name="Group 101020" transform="translate(-2 -2)" clip-path="url(#clip-path)">
      <path id="Path_86366" data-name="Path 86366" d="M0,13.114c.034-.322.06-.648.1-.968A6.955,6.955,0,0,1,1.028,9.3,3.17,3.17,0,0,1,3.837,7.736a1.215,1.215,0,0,1,.543.18c.256.136.494.31.741.465a3.912,3.912,0,0,0,4.445,0c.2-.124.4-.241.591-.383a1.471,1.471,0,0,1,1.157-.236A3.264,3.264,0,0,1,13.807,9.55a7.362,7.362,0,0,1,.8,2.856,14.134,14.134,0,0,1,.068,1.542,2.814,2.814,0,0,1-2.6,2.846.8.8,0,0,0-.111.032H2.716c-.054-.012-.108-.026-.162-.036A2.781,2.781,0,0,1,.148,14.828,6.427,6.427,0,0,1,0,14.146V13.114M7.336,15.8h4.125a5.1,5.1,0,0,0,.564-.035,1.745,1.745,0,0,0,1.593-1.548,7.876,7.876,0,0,0-.078-2.071,6.076,6.076,0,0,0-.626-2.075,2.216,2.216,0,0,0-1.89-1.291.43.43,0,0,0-.24.056c-.261.155-.512.328-.769.487a5.1,5.1,0,0,1-2.306.769A5.011,5.011,0,0,1,4.58,9.261c-.228-.145-.452-.295-.681-.434a.4.4,0,0,0-.19-.057A2.158,2.158,0,0,0,2.7,9.056,2.727,2.727,0,0,0,1.574,10.49a8.541,8.541,0,0,0-.53,3.522,1.7,1.7,0,0,0,1.012,1.574,2.481,2.481,0,0,0,1.1.21q2.089,0,4.177,0" transform="translate(2.2 2.973)" fill="#657283" stroke="#657283" stroke-linecap="round" stroke-linejoin="round" stroke-width="0.5"/>
      <path id="Path_86367" data-name="Path 86367" d="M7.361,0c.228.046.459.085.685.139a4.266,4.266,0,0,1,3.1,3.444,4.119,4.119,0,0,1-.6,2.924A4.156,4.156,0,0,1,7.23,8.466,4.23,4.23,0,0,1,3.726,1.5,4.2,4.2,0,0,1,6.083.088C6.244.055,6.407.029,6.57,0Zm2.808,4.245a3.209,3.209,0,1,0-3.215,3.2,3.2,3.2,0,0,0,3.215-3.2" transform="translate(2.472 2.2)" fill="#657283" stroke="#657283" stroke-linecap="round" stroke-linejoin="round" stroke-width="0.5"/>
    </g>
  </g>
</svg>
